<?xml version="1.0" encoding="utf-8"?>
<!-- Generator: Adobe Illustrator 26.3.1, SVG Export Plug-In . SVG Version: 6.00 Build 0)  -->
<svg version="1.1" id="Ebene_1" xmlns="http://www.w3.org/2000/svg" xmlns:xlink="http://www.w3.org/1999/xlink" x="0px" y="0px"
	 viewBox="0 0 1931.2 1738.1" style="enable-background:new 0 0 1931.2 1738.1;" xml:space="preserve">
<style type="text/css">
	.st0{fill:#FF0000;}
	.st1{fill:#949494;}
</style>
<g>
	<path class="st0" d="M1003,1166.3c0,11-9,20-20,20h-34.8c-11,0-20-9-20-20V521.1c0-11,9-20,20-20H983c11,0,20,9,20,20V1166.3z"/>
</g>
<circle class="st0" cx="965.6" cy="1424.9" r="60.9"/>
<path class="st1" d="M1930.3,1509.8c-3.9-45-20.1-92.4-48.1-140.7l-151.8-263l-400-692.8l-151.8-263c-27.9-48.4-60.8-86.1-97.8-112
	C1044.3,12.9,1005.5,0,965.6,0c-40,0-78.7,12.9-115.1,38.4c-37,25.9-69.9,63.6-97.8,112l-551.8,955.8L49,1369.2
	c-28,48.6-44.2,95.9-48.1,140.7c-3.9,44.2,4.3,84.3,24.3,119c19.9,34.6,50.5,61.7,90.8,80.5c40.9,19.1,90,28.7,145.8,28.7h1407.3
	c56.1,0,105.2-9.7,145.9-28.7c40.3-18.8,70.8-45.8,90.8-80.5C1926,1594.1,1934.1,1554,1930.3,1509.8L1930.3,1509.8z M1794,1664
	c-34.1,16-76.1,24.1-124.7,24.1H261.9c-48.7,0-90.6-8.1-124.7-24.1c-30.9-14.4-54-34.7-68.8-60.2c-14.7-25.5-20.7-55.6-17.8-89.6
	c3.3-37.6,17.2-78,41.5-120.1l151.8-263l400-692.8l151.8-263c24.2-42,52.2-74.3,83.1-96C907,59.9,936.2,50,965.6,50
	c29.5,0,58.6,9.9,86.5,29.4c31,21.7,59,54,83.2,96l151.8,263l400,692.8l151.8,263c24.3,42.1,38.2,82.5,41.5,120.1
	c2.9,33.9-3.1,64.1-17.8,89.7C1847.9,1629.4,1824.8,1649.6,1794,1664L1794,1664z"/>
</svg>
