<?xml version="1.0" encoding="utf-8"?>
<!-- Generator: Adobe Illustrator 26.3.1, SVG Export Plug-In . SVG Version: 6.00 Build 0)  -->
<svg version="1.1" id="Ebene_1" xmlns="http://www.w3.org/2000/svg" xmlns:xlink="http://www.w3.org/1999/xlink" x="0px" y="0px"
	 viewBox="0 0 1909.3 1672.2" style="enable-background:new 0 0 1909.3 1672.2;" xml:space="preserve">
<style type="text/css">
	.st0{fill:#949494;}
	.st1{fill:#F8982D;}
</style>
<ellipse class="st0" cx="279" cy="816.2" rx="81.7" ry="82.2"/>
<ellipse class="st0" cx="279" cy="1111.4" rx="81.7" ry="82.2"/>
<ellipse class="st0" cx="528.7" cy="816.2" rx="81.7" ry="82.2"/>
<ellipse class="st0" cx="528.7" cy="1111.4" rx="81.7" ry="82.2"/>
<ellipse class="st0" cx="778.3" cy="816.2" rx="81.7" ry="82.2"/>
<ellipse class="st0" cx="778.3" cy="1111.4" rx="81.7" ry="82.2"/>
<path class="st1" d="M1875,1060.6c-22-52.4-53.6-99.5-93.8-139.9c-40.2-40.4-87-72.2-139.1-94.4c-54-23-111.3-34.6-170.4-34.6
	s-116.4,11.6-170.4,34.6c-52.1,22.2-98.9,53.9-139.1,94.4c-40.2,40.4-71.7,87.5-93.8,139.9c-22.8,54.3-34.4,111.9-34.4,171.3
	s11.6,117.1,34.4,171.3c22,52.4,53.6,99.5,93.8,139.9c40.2,40.4,87,72.2,139.1,94.4c54,23,111.3,34.6,170.4,34.6
	s116.4-11.6,170.4-34.6c52.1-22.2,98.9-53.9,139.1-94.4c40.2-40.4,71.7-87.5,93.8-139.9c22.8-54.3,34.4-111.9,34.4-171.3
	S1897.8,1114.8,1875,1060.6z M1619,1583.4c-46.7,19.9-96.3,30-147.3,30c-51.2,0-100.7-10.1-147.3-30
	c-45.1-19.2-85.6-46.7-120.3-81.7c-34.9-35-62.2-75.8-81.3-121.2c-19.8-47.1-29.8-97-29.8-148.5c0-51.4,10-101.4,29.8-148.5
	c19.1-45.4,46.4-86.1,81.3-121.2c34.7-34.9,75.2-62.4,120.3-81.7c46.5-19.9,96.1-29.9,147.2-29.9s100.7,10.1,147.3,30
	c45.1,19.2,85.6,46.7,120.3,81.7c34.9,35,62.2,75.8,81.3,121.2c19.8,47.1,29.8,97,29.8,148.5c0,51.4-10,101.4-29.8,148.5
	c-19.1,45.4-46.4,86.1-81.3,121.2C1704.5,1536.6,1664,1564.1,1619,1583.4z"/>
<path class="st0" d="M1597.8,234.5c-42.8-42.8-99.6-66.4-159.8-66.4h-142.2V99.2c0-54.7-44.5-99.2-99.2-99.2h-27.5
	c-54.7,0-99.2,44.5-99.2,99.2V168h-468V99.2c0-54.7-44.5-99.2-99.2-99.2h-27.5C420.5,0,376,44.5,376,99.2V168H226.3
	c-60.2,0-116.9,23.6-159.9,66.4C23.6,277.3,0,334,0,394.2v1018.1c0,60.2,23.6,116.9,66.4,159.8c42.8,42.8,99.6,66.4,159.8,66.4H1173
	l-29.7-25.5c-7.3-6.2-14.8-13.2-22.4-20.5l-4.2-4.2H226.3c-23.8,0-46.7-4.7-68.3-13.9c-21-8.9-39.8-21.7-56-37.9s-28.9-35.1-37.9-56
	c-9.2-21.8-13.9-44.8-13.9-68.3V591.1h1563.9v157.2l10.2,3c6.9,2.2,13.8,4.5,20.4,6.9l19.4,7.1v-371
	C1664.2,334,1640.6,277.3,1597.8,234.5z M405,365.2c18.8,18.8,43.7,29.1,70.2,29.1h27.5c54.7,0,99.2-44.5,99.2-99.2v-76.8h468v76.8
	c0,54.7,44.5,99.2,99.2,99.2h27.5c54.7,0,99.2-44.5,99.2-99.2v-76.8H1438c23.8,0,46.7,4.7,68.3,13.9c21,8.9,39.8,21.7,56,37.9
	c16.2,16.2,28.9,35.1,37.9,56c9.2,21.8,13.9,44.8,13.9,68.3V541H50.2V394.3c0-23.8,4.7-46.7,13.9-68.3C73,305,85.8,286.2,102,270
	c16-16.1,34.9-28.9,56-37.8c21.8-9.2,44.8-13.9,68.3-13.9H376V295C376,321.4,386.3,346.3,405,365.2z M1169.1,50.1h27.5
	c13,0,25.3,5.1,34.6,14.5c9.3,9.3,14.5,21.6,14.5,34.6V295c0,13-5.1,25.3-14.5,34.6c-9.3,9.3-21.6,14.5-34.6,14.5h-27.5
	c-13,0-25.3-5.1-34.6-14.5S1120,308,1120,295V99.2c0-13,5.1-25.3,14.5-34.6C1143.8,55.2,1156.1,50.1,1169.1,50.1z M551.8,295
	c0,13-5.1,25.3-14.5,34.6c-9.3,9.3-21.6,14.5-34.6,14.5h-27.5c-13,0-25.3-5.1-34.6-14.5c-9.3-9.3-14.5-21.6-14.5-34.6V99.2
	c0-13,5.1-25.3,14.5-34.6c9.3-9.3,21.6-14.5,34.6-14.5h27.5c13,0,25.3,5.1,34.6,14.5c9.3,9.3,14.5,21.6,14.5,34.6V295z"/>
<path class="st1" d="M1656.6,1341.2l-134.5-134.5v-230c0-21.8-17.7-39.5-39.5-39.5h-2.3c-21.8,0-39.5,17.7-39.5,39.5v240.7
	c-1.2,7.5-0.1,15.3,3,22.3c2.8,6.6,7.2,12.3,13,16.6l142.4,142.4c7.5,7.5,17.4,11.6,27.9,11.6s20.4-4.1,27.9-11.6l1.6-1.6
	c7.5-7.5,11.6-17.4,11.6-27.9S1664,1348.6,1656.6,1341.2z"/>
</svg>
