<?xml version="1.0" encoding="utf-8"?>
<!-- Generator: Adobe Illustrator 26.3.1, SVG Export Plug-In . SVG Version: 6.00 Build 0)  -->
<svg version="1.1" id="Ebene_1" xmlns="http://www.w3.org/2000/svg" xmlns:xlink="http://www.w3.org/1999/xlink" x="0px" y="0px"
	 viewBox="0 0 578.7 578.7" style="enable-background:new 0 0 578.7 578.7;" xml:space="preserve">
<style type="text/css">
	.st0{fill:#949494;}
</style>
<path class="st0" d="M556,176.7L556,176.7c-14.6-34.5-35.5-65.5-62-92c-26.6-26.6-57.5-47.4-92-62C366.4,7.7,328.5,0,289.4,0
	c-39.1,0-77,7.7-112.7,22.7c-34.5,14.6-65.5,35.5-92,62c-26.6,26.6-47.4,57.5-62,92C7.7,212.5,0,250.4,0,289.4S7.7,366.3,22.7,402
	c14.6,34.5,35.5,65.5,62,92c26.6,26.6,57.5,47.4,91.9,62c35.7,15.1,73.6,22.7,112.7,22.7c39.1,0,77-7.7,112.7-22.7
	c34.5-14.6,65.5-35.5,92-62c26.6-26.6,47.4-57.5,62-91.9c15.1-35.6,22.8-73.5,22.8-112.7C578.7,250.3,571.1,212.4,556,176.7z
	 M510.7,382.9c-6,14.1-13.4,27.9-22.1,40.8c-8.6,12.8-18.5,24.7-29.4,35.5c-10.8,10.8-22.8,20.7-35.6,29.4
	c-12.7,8.6-26.5,16.1-40.8,22.1c-14.5,6.1-29.6,10.8-45,14c-31.4,6.4-65,6.5-96.9,0c-15.3-3.1-30.4-7.8-45-14
	c-14.1-6-27.9-13.4-40.8-22.1c-12.8-8.6-24.7-18.5-35.6-29.4c-10.8-10.8-20.7-22.8-29.4-35.6c-8.6-12.7-16.1-26.5-22.1-40.8
	c-6.1-14.5-10.8-29.6-14-45c-3.3-15.9-4.9-32.2-4.9-48.4c0-16.3,1.6-32.6,4.9-48.4c3.1-15.4,7.8-30.5,14-45
	c6-14.1,13.4-27.9,22.1-40.8c8.6-12.8,18.5-24.7,29.4-35.6c10.8-10.8,22.8-20.7,35.6-29.4c12.7-8.6,26.5-16.1,40.8-22.1
	c14.5-6.1,29.6-10.8,45-14c15.9-3.2,32.2-4.9,48.5-4.9c16.3,0,32.6,1.6,48.4,4.9c15.2,3.1,30.4,7.8,45,14c14.3,6,28,13.5,40.8,22.1
	c12.8,8.6,24.7,18.5,35.6,29.4c10.8,10.8,20.7,22.8,29.4,35.6c8.6,12.7,16.1,26.5,22.1,40.8c6.1,14.5,10.8,29.6,14,45
	c3.2,15.8,4.9,32,4.9,48.4c0,16.3-1.6,32.6-4.9,48.4C521.5,353.1,516.8,368.3,510.7,382.9z"/>
<g>
	<path class="st0" d="M256.1,257.9c0-3.6,8-6.5,17.8-6.5h31c9.8,0,17.8,2.9,17.8,6.5v210.9c0,3.6-8,6.5-17.8,6.5h-31
		c-9.8,0-17.8-2.9-17.8-6.5V257.9z"/>
</g>
<circle class="st0" cx="289.4" cy="161" r="37"/>
</svg>
