<?xml version="1.0" encoding="utf-8"?>
<!-- Generator: Adobe Illustrator 26.3.1, SVG Export Plug-In . SVG Version: 6.00 Build 0)  -->
<svg version="1.1" id="Ebene_1" xmlns="http://www.w3.org/2000/svg" xmlns:xlink="http://www.w3.org/1999/xlink" x="0px" y="0px"
	 viewBox="0 0 1794 1794" style="enable-background:new 0 0 1794 1794;" xml:space="preserve">
<style type="text/css">
	.st0{fill:#949494;}
</style>
<path class="st0" d="M1723.5,547.8L1723.5,547.8c-45.3-107-110-202.9-192.2-285.1c-82.3-82.3-178.3-147-285.1-192.2
	C1135.7,23.7,1018.2,0,897,0S658.3,23.7,547.8,70.5c-107,45.3-202.9,110-285.1,192.2C180.4,345,115.7,441,70.5,547.8
	C23.7,658.6,0,776,0,897s23.7,238.4,70.5,349.2c45.3,107,110,202.9,192.2,285.1c82.5,82.4,178.4,147.1,285.1,192.2
	c110.5,46.8,228,70.5,349.2,70.5s238.7-23.7,349.2-70.5c107-45.3,202.9-110,285.1-192.2c82.4-82.5,147.1-178.4,192.2-285.1
	c46.8-110.4,70.5-227.9,70.5-349.2C1794,775.8,1770.3,658.3,1723.5,547.8z M1067.8,1726.8c-55.6,11.4-113,17.2-170.7,17.2
	c-57.3,0-114.7-5.8-170.7-17.2c-53.8-11-107.3-27.6-158.9-49.3c-49.9-21.1-98.3-47.4-143.9-78.1c-45-30.4-87.2-65.2-125.4-103.5
	c-38.2-38.2-73-80.4-103.5-125.3c-30.4-44.9-56.7-93.3-78.1-143.9c-21.7-51.1-38.3-104.6-49.3-158.9C55.8,1011.9,50,954.4,50,897
	c0-57.3,5.8-114.7,17.2-170.7c11.1-54.3,27.6-107.8,49.3-158.9c21.1-49.9,47.4-98.3,78.1-143.9c30.4-45,65.2-87.2,103.5-125.4
	c38.2-38.2,80.4-73,125.3-103.5c44.9-30.4,93.3-56.7,143.9-78.1c51.1-21.7,104.6-38.3,158.9-49.3C782.3,55.8,839.7,50,897,50
	s114.7,5.8,170.7,17.2c53.8,11,107.3,27.6,158.9,49.3c50.3,21.3,98.7,47.6,143.9,78.1c45.1,30.5,87.2,65.3,125.3,103.5
	c38.2,38.2,73,80.4,103.5,125.3c30.4,44.9,56.7,93.3,78.1,143.9c21.7,51.1,38.3,104.6,49.3,158.9c11.4,55.6,17.2,113,17.2,170.7
	c0,57.3-5.8,114.7-17.2,170.7c-11,54.1-27.6,107.7-49.2,159.1c-21.1,49.9-47.4,98.3-78.1,143.9c-30.5,45.1-65.3,87.2-103.5,125.3
	c-38.2,38.2-80.4,73-125.3,103.5c-44.9,30.4-93.3,56.7-143.9,78.1C1175.6,1699.2,1122.1,1715.7,1067.8,1726.8z"/>
<path class="st0" d="M1328.7,863.9H930.1V465.3c0-18.3-14.8-33.1-33.1-33.1h0c-18.3,0-33.1,14.8-33.1,33.1v398.6H465.3
	c-18.3,0-33.1,14.8-33.1,33.1v0c0,18.3,14.8,33.1,33.1,33.1h398.6v398.6c0,18.3,14.8,33.1,33.1,33.1h0c18.3,0,33.1-14.8,33.1-33.1
	V930.1h398.6c18.3,0,33.1-14.8,33.1-33.1v0C1361.9,878.7,1347,863.9,1328.7,863.9z"/>
</svg>
