<?xml version="1.0" encoding="utf-8"?>
<!-- Generator: Adobe Illustrator 26.3.1, SVG Export Plug-In . SVG Version: 6.00 Build 0)  -->
<svg version="1.1" id="Ebene_1" xmlns="http://www.w3.org/2000/svg" xmlns:xlink="http://www.w3.org/1999/xlink" x="0px" y="0px"
	 viewBox="0 0 1794 1794" style="enable-background:new 0 0 1794 1794;" xml:space="preserve">
<style type="text/css">
	.st0{fill:#949494;}
	.st1{fill:#2C65A2;}
</style>
<path class="st0" d="M1723.5,547.8c-45.3-107-110-202.9-192.2-285.1c-82.3-82.3-178.3-147-285.1-192.2C1135.7,23.7,1018.2,0,897,0
	C775.8,0,658.3,23.7,547.8,70.5c-107,45.3-202.9,110-285.1,192.2c-82.3,82.3-147,178.3-192.2,285.1C23.7,658.6,0,776,0,897
	c0,121,23.7,238.4,70.5,349.2c45.3,107,110,202.9,192.2,285.1c82.5,82.4,178.4,147.1,285.1,192.2c110.5,46.8,228,70.5,349.2,70.5
	c121.2,0,238.7-23.7,349.2-70.5c107-45.3,202.9-110,285.1-192.2c82.4-82.5,147.1-178.4,192.2-285.1
	c46.8-110.4,70.5-227.9,70.5-349.2C1794,775.8,1770.3,658.3,1723.5,547.8z M1677.5,1226.7c-21.1,49.9-47.4,98.3-78.1,143.9
	c-30.5,45.1-65.3,87.2-103.5,125.3c-38.2,38.2-80.4,73-125.3,103.5c-44.9,30.4-93.3,56.7-143.9,78.1
	c-51.1,21.7-104.6,38.3-158.9,49.3c-55.6,11.4-113,17.2-170.7,17.2c-57.3,0-114.7-5.8-170.7-17.2c-53.8-11-107.3-27.6-158.9-49.3
	c-49.9-21.1-98.3-47.4-143.9-78.1c-44.9-30.4-87.2-65.2-125.4-103.5c-38.2-38.2-73-80.4-103.5-125.3
	c-30.4-44.9-56.7-93.3-78.1-143.9c-21.7-51.1-38.3-104.6-49.3-158.9C55.8,1011.9,50,954.4,50,897c0-57.3,5.8-114.7,17.2-170.7
	c11.1-54.3,27.6-107.8,49.3-158.9c21.1-49.9,47.4-98.3,78.1-143.9c30.4-45,65.2-87.2,103.5-125.4c38.2-38.2,80.4-73,125.3-103.5
	c44.9-30.4,93.3-56.7,143.9-78.1c51.1-21.7,104.6-38.3,158.9-49.3C782.3,55.8,839.7,50,897,50c57.3,0,114.7,5.8,170.7,17.2
	c53.8,11,107.3,27.6,158.9,49.3c50.3,21.3,98.7,47.5,143.9,78.1c45.1,30.5,87.2,65.3,125.3,103.5c38.2,38.2,73,80.4,103.5,125.3
	c30.4,44.9,56.7,93.3,78.1,143.9c21.7,51.1,38.3,104.6,49.3,158.9c11.4,55.6,17.2,113,17.2,170.7c0,57.3-5.8,114.7-17.2,170.7
	C1715.7,1121.7,1699.1,1175.3,1677.5,1226.7z"/>
<g>
	<path class="st1" d="M902.3,1160.3h-47c-7,0-10.5-3.5-10.5-10.4v-83.6c0-36.6,8.3-69.2,24.8-98c16.6-28.7,36.4-52.7,59.5-71.9
		c23.1-19.2,46.4-38.3,69.9-57.5c23.5-19.2,43.5-42.5,60.1-69.9c16.6-27.4,24.8-59,24.8-94.7c0-54-15.9-99.3-47.7-135.9
		c-31.8-36.6-79.9-54.9-144.4-54.9c-77.5,0-146.8,31.4-207.7,94.1c-5.2,7-10,6.5-14.4-1.3l-26.1-34c-2.6-6.1-1.7-11.3,2.6-15.7
		c65.3-70.5,147.6-105.8,246.9-105.8c78.4,0,141.1,23.1,188.1,69.3c47,46.2,70.5,107.6,70.5,184.2c0,35.7-5.9,67.7-17.6,96
		s-26.3,51.2-43.8,68.6s-36.6,35.1-57.5,52.9c-20.9,17.9-40.1,34.4-57.5,49.6c-17.4,15.2-32,34.6-43.8,58.1
		c-11.8,23.5-17.6,49.6-17.6,78.4v71.9C914.1,1156.8,910.1,1160.3,902.3,1160.3z M915.4,1285.7c9.6,9.6,14.4,21.8,14.4,36.6
		s-4.8,27-14.4,36.6c-9.6,9.6-21.8,14.4-36.6,14.4s-26.8-4.8-35.9-14.4c-9.2-9.6-13.7-21.8-13.7-36.6s4.6-27,13.7-36.6
		c9.2-9.6,21.1-14.4,35.9-14.4S905.8,1276.1,915.4,1285.7z"/>
</g>
</svg>
