<?xml version="1.0" encoding="utf-8"?>
<!-- Generator: Adobe Illustrator 26.3.1, SVG Export Plug-In . SVG Version: 6.00 Build 0)  -->
<svg version="1.1" id="Ebene_1" xmlns="http://www.w3.org/2000/svg" xmlns:xlink="http://www.w3.org/1999/xlink" x="0px" y="0px"
	 viewBox="0 0 860.8 858.9" style="enable-background:new 0 0 860.8 858.9;" xml:space="preserve">
<style type="text/css">
	.st0{fill:#949494;}
</style>
<path class="st0" d="M846.7,790L611.5,554.8c1.9-2.4,3.8-4.8,5.6-7.2c6.6-8.8,12.8-18,18.5-27.3c2.9-4.7,5.6-9.5,8.2-14.3
	c2.6-4.9,5.2-9.8,7.6-14.8c4.8-10,9.2-20.3,13-30.7c2.9-7.9,5.5-16,7.8-24c8.6-30.4,13-61.9,13-93.8c0-11.7-0.6-23.5-1.8-35
	c-0.9-8.6-2.1-17.2-3.6-25.6c-1.5-8.4-3.3-16.8-5.4-25c-0.7-2.7-1.4-5.5-2.2-8.2c-2.3-8.1-4.9-16.1-7.8-24
	c-3.8-10.4-8.2-20.8-13-30.7c-2.4-5-4.9-9.9-7.6-14.8c-1.3-2.4-2.7-4.8-4-7.2c-30.2-52.6-74-96.4-126.6-126.6
	c-2.4-1.4-4.8-2.7-7.2-4c-4.8-2.6-9.8-5.2-14.8-7.6c-10-4.8-20.3-9.2-30.7-13c-7.9-2.9-16-5.5-24-7.8c-2.7-0.8-5.5-1.5-8.2-2.2
	c-8.2-2.1-16.6-3.9-25-5.4c-8.4-1.5-17.1-2.7-25.6-3.6C366,0.6,354.2,0,342.5,0c-31.9,0-63.4,4.4-93.8,13c-8.1,2.3-16.1,4.9-24,7.8
	c-10.4,3.8-20.7,8.2-30.7,13c-5,2.4-9.9,4.9-14.8,7.6c-4.8,2.6-9.7,5.4-14.3,8.2c-9.4,5.7-18.5,11.9-27.3,18.5
	c-4.4,3.3-8.7,6.7-12.9,10.2c-4.2,3.5-8.4,7.1-12.4,10.8c-4,3.7-8,7.5-11.9,11.3c-21.4,21.4-39.9,45.5-54.9,71.7
	c-15.3,26.6-27,55.2-34.6,84.9c-2.1,8.2-3.9,16.6-5.4,25c-1.5,8.4-2.7,17.1-3.6,25.6c-1.2,11.6-1.8,23.3-1.8,35
	c0,46.2,9.1,91.1,26.9,133.3c17.3,40.8,41.9,77.4,73.4,108.9c31.5,31.5,68.1,56.1,108.9,73.4c42.2,17.9,87.1,26.9,133.3,26.9
	c11.7,0,23.5-0.6,35-1.8c8.6-0.9,17.2-2.1,25.6-3.6c8.4-1.5,16.8-3.3,25-5.4c29.7-7.6,58.3-19.3,84.9-34.6
	c15.3-8.8,30-18.8,43.8-29.9l235,235l14.1,14.1l14.1-14.1l26.5-26.5l14.1-14.1L846.7,790z M533.4,533.4
	c-24.8,24.8-53.7,44.3-85.8,57.9c-33.2,14.1-68.6,21.2-105,21.2c-36.5,0-71.8-7.1-105-21.2c-32.1-13.6-61-33.1-85.8-57.9
	c-24.8-24.8-44.3-53.7-57.9-85.8c-14.1-33.2-21.2-68.6-21.2-105s7.1-71.8,21.2-105c13.6-32.1,33.1-61,57.9-85.8
	c24.8-24.8,53.7-44.3,85.8-57.9c33.2-14.1,68.6-21.2,105-21.2c36.5,0,71.8,7.1,105,21.2c32.1,13.6,61,33.1,85.8,57.9
	c24.8,24.8,44.3,53.7,57.9,85.8c14.1,33.2,21.2,68.6,21.2,105c0,36.5-7.1,71.8-21.2,105C577.7,479.7,558.2,508.6,533.4,533.4z"/>
</svg>
