<?xml version="1.0" encoding="utf-8"?>
<!-- Generator: Adobe Illustrator 26.3.1, SVG Export Plug-In . SVG Version: 6.00 Build 0)  -->
<svg version="1.1" id="Ebene_1" xmlns="http://www.w3.org/2000/svg" xmlns:xlink="http://www.w3.org/1999/xlink" x="0px" y="0px"
	 viewBox="0 0 899.3 1292" style="enable-background:new 0 0 899.3 1292;" xml:space="preserve">
<style type="text/css">
	.st0{fill:#949494;}
</style>
<path class="st0" d="M888.4,285.6L613.8,11c-7.6-7.6-17.6-11.2-27.6-11c-9.9-0.3-20,3.4-27.6,11L284.1,285.6
	c-14.6,14.6-14.6,38.4,0,53l3.5,3.5c14.6,14.6,38.4,14.6,53,0l205.6-205.6v618.2c0,20.7,16.8,37.5,37.5,37.5h5
	c20.7,0,37.5-16.8,37.5-37.5V136.6l205.6,205.6c14.6,14.6,38.4,14.6,53,0l3.5-3.5C903,324,903,300.2,888.4,285.6z"/>
<path class="st0" d="M615.2,953.4l-3.5-3.5c-14.6-14.6-38.4-14.6-53,0l-205.6,205.6V537.2c0-20.7-16.8-37.5-37.5-37.5h-5
	c-20.7,0-37.5,16.8-37.5,37.5v618.2L67.6,949.9c-14.6-14.6-38.4-14.6-53,0l-3.5,3.5c-14.6,14.6-14.6,38.4,0,53L285.6,1281
	c7.6,7.6,17.6,11.2,27.6,11c9.9,0.3,20-3.4,27.6-11l274.6-274.6C629.9,991.8,629.9,968,615.2,953.4z"/>
</svg>
